<svg width="150" height="150" viewBox="0 0 150 150" fill="none" xmlns="http://www.w3.org/2000/svg">
<path d="M75 150C116.421 150 150 116.421 150 75C150 33.5786 116.421 0 75 0C33.5786 0 0 33.5786 0 75C0 116.421 33.5786 150 75 150Z" fill="#F3F5F6"/>
<path fill-rule="evenodd" clip-rule="evenodd" d="M74 150C115.421 150 149 116.421 149 75C149 33.5786 115.421 0 74 0V150Z" fill="#ECF2F4"/>
<rect x="21.8914" y="54.8916" width="107" height="6" rx="2" fill="#DCE8EC"/>
<rect x="21.8914" y="65.8916" width="107" height="6" rx="2" fill="#DCE8EC"/>
<rect x="21.8914" y="76.8916" width="107" height="6" rx="2" fill="#DCE8EC"/>
<rect x="21.8914" y="87.8916" width="107" height="6" rx="2" fill="#DCE8EC"/>
<path d="M85.8991 91.8706L91.9094 85.8601L114.449 108.399C116.109 110.058 116.109 112.749 114.449 114.409C112.789 116.069 110.098 116.069 108.438 114.409L85.8991 91.8706Z" fill="#FF9500"/>
<path d="M66.3907 32.3916C57.3733 32.3916 48.7253 35.9737 42.3491 42.35C35.9728 48.7262 32.3907 57.3742 32.3907 66.3916C32.3907 75.409 35.9728 84.057 42.3491 90.4332C48.7253 96.8095 57.3733 100.392 66.3907 100.392C75.408 100.392 84.0561 96.8095 90.4323 90.4332C96.8086 84.057 100.391 75.409 100.391 66.3916C100.391 57.3742 96.8086 48.7262 90.4323 42.35C84.0561 35.9737 75.408 32.3916 66.3907 32.3916Z" fill="#FF9500"/>
<path d="M92.8593 98.9912L98.8696 92.9807L115.938 110.048C116.719 110.829 116.719 112.096 115.938 112.877L112.756 116.059C111.975 116.84 110.708 116.84 109.927 116.059L92.8593 98.9912Z" fill="#E46A00"/>
<path d="M66.3907 38.7666C59.0641 38.7666 52.0376 41.6771 46.8569 46.8578C41.6762 52.0385 38.7657 59.065 38.7657 66.3916C38.7657 73.7182 41.6762 80.7447 46.8569 85.9254C52.0376 91.1061 59.0641 94.0166 66.3907 94.0166C73.7173 94.0166 80.7438 91.1061 85.9245 85.9254C91.1052 80.7447 94.0157 73.7182 94.0157 66.3916C94.0157 59.065 91.1052 52.0385 85.9245 46.8578C80.7438 41.6771 73.7173 38.7666 66.3907 38.7666Z" fill="white" fill-opacity="0.9"/>
<path d="M81.0533 54.0666C77.4408 49.8166 72.1283 47.2666 66.3908 47.2666C60.6533 47.2666 55.3408 49.8166 51.7283 54.0666C50.8783 54.9166 51.0908 56.4041 51.9408 57.0416C52.7908 57.8916 54.2783 57.6791 54.9158 56.8291C57.8908 53.4291 61.9283 51.5166 66.3908 51.5166C70.8533 51.5166 74.8908 53.4291 77.8658 56.8291C78.2908 57.2541 78.9283 57.6791 79.5658 57.6791C79.9908 57.6791 80.6283 57.4666 80.8408 57.2541C81.6908 56.4041 81.6908 54.9166 81.0533 54.0666Z" fill="#D56E0E"/>
</svg>
